<svg xmlns="http://www.w3.org/2000/svg" xmlns:xlink="http://www.w3.org/1999/xlink" xmlns:fi="http://pattern.flaticon.com/" x="0" y="0" width="700" height="350" viewBox="0 0 980 490"><rect x="0px" y="0px" width="100%" height="100%" opacity="1" fill="#ac7dff"/><defs><path d="M30.276,1.722C29.168,0.611,27.69,0,26.121,0s-3.045,0.61-4.154,1.72L4.294,19.291c-0.105,0.104-0.185,0.229-0.235,0.367     l-4,11c-0.129,0.355-0.046,0.756,0.215,1.031C0.466,31.891,0.729,32,1,32c0.098,0,0.196-0.014,0.293-0.044l9.949-3.052     c0.156-0.047,0.298-0.133,0.414-0.248l18.621-18.621C31.389,8.926,32,7.448,32,5.878C31.999,4.309,31.389,2.832,30.276,1.722z      M10.092,27.165l-3.724,1.144c-0.217-0.637-0.555-1.201-1.016-1.662c-0.401-0.399-0.866-0.709-1.356-0.961L5.7,21H8v2     c0,0.553,0.447,1,1,1h1.765L10.092,27.165z M24.812,12.671L12.628,24.855l0.35-1.647c0.062-0.296-0.012-0.603-0.202-0.837     C12.586,22.136,12.301,22,12,22h-2v-2c0-0.552-0.448-1-1-1H7.422L19.315,7.175l0.012,0.011c0.732-0.733,1.707-1.136,2.742-1.136     s2.011,0.403,2.742,1.136s1.138,1.707,1.138,2.743C25.949,10.965,25.546,11.938,24.812,12.671z M28.862,8.621L27.93,9.554     c-0.09-1.429-0.683-2.761-1.703-3.782c-1.021-1.022-2.354-1.614-3.787-1.703l0.938-0.931l0.002-0.002     C24.11,2.403,25.085,2,26.121,2s2.01,0.403,2.741,1.136C29.596,3.869,30,4.843,30,5.878C30,6.915,29.598,7.889,28.862,8.621z      M22.293,8.293l-10,10c-0.391,0.391-0.391,1.023,0,1.414C12.487,19.902,12.744,20,13,20s0.511-0.098,0.707-0.293l10-10     c0.391-0.391,0.391-1.023,0-1.414C23.315,7.902,22.684,7.902,22.293,8.293z" transform="matrix(1.4142135956908046 0.1325825222181486 -0.1325825222181486 1.4142135956908046 242.4939028244375 302.2512621134565)" id="L1_0"/><g transform="matrix(0.1171872690320015 0 0 0.1171872690320015 138 154)" id="L1_1"><path d="m123.878906 151.597656h1.824219v1.824219c0 5.519531 4.476563 10 9.996094 10 5.523437 0 10-4.480469 10-10v-1.824219h1.824219c5.523437 0 10-4.476562 10-10 0-5.519531-4.476563-10-10-10h-1.824219v-1.824218c0-5.519532-4.476563-10-10-10-5.519531 0-9.996094 4.480468-9.996094 10v1.824218h-1.824219c-5.523437 0-10 4.480469-10 10 0 5.523438 4.476563 10 10 10zm0 0" fill="#000000"/><path d="m457.792969 482.875c-.652344 0-1.3125-.070312-1.953125-.199219-.636719-.128906-1.269532-.320312-1.867188-.570312-.609375-.25-1.191406-.558594-1.730468-.917969-.550782-.359375-1.058594-.78125-1.519532-1.242188-.460937-.457031-.878906-.980468-1.242187-1.519531-.359375-.550781-.667969-1.128906-.917969-1.730469-.25-.601562-.449219-1.230468-.570312-1.867187-.128907-.652344-.199219-1.300781-.199219-1.953125 0-.660156.070312-1.308594.199219-1.957031.121093-.640625.320312-1.269531.570312-1.871094s.558594-1.179687.917969-1.730469c.363281-.539062.78125-1.058594 1.242187-1.519531.460938-.460937.96875-.871094 1.519532-1.238281.539062-.359375 1.121093-.671875 1.730468-.921875.597656-.25 1.230469-.4375 1.867188-.570313 3.25-.648437 6.703125.410156 9.023437 2.730469.457031.460937.878907.980469 1.238281 1.519531.359376.550782.667969 1.132813.917969 1.730469.25.601563.453125 1.230469.582031 1.871094.128907.648437.191407 1.296875.191407 1.957031 0 .652344-.0625 1.300781-.191407 1.953125-.128906.636719-.332031 1.269531-.582031 1.867187-.25.601563-.558593 1.179688-.917969 1.730469-.359374.539063-.78125 1.0625-1.238281 1.519531-1.863281 1.859376-4.441406 2.929688-7.070312 2.929688zm0 0" fill="#000000"/><path d="m502 433.757812h-10.300781c-4.578125-37.261718-21.515625-72.0625-48.289063-98.835937-31.957031-31.953125-74.441406-49.550781-119.636718-49.550781-23.707032 0-46.671876 4.84375-67.761719 14.0625l-65.457031-132.242188c3.644531-7.777344 5.679687-16.453125 5.679687-25.59375 0-25.289062-15.585937-47.007812-37.660156-56.046875v-13.515625c5.042969-.511718 8.980469-4.769531 8.980469-9.949218v-52.085938c0-5.523438-4.476563-10-10-10h-43.707032c-5.523437 0-10 4.476562-10 10v52.085938c0 5.179687 3.9375 9.441406 8.980469 9.949218v13.515625c-22.074219 9.039063-37.664063 30.757813-37.664063 56.046875 0 8.941406 1.949219 17.433594 5.441407 25.078125l-75.980469 154.496094c-5.3125 10.871094-6.074219 23.160156-2.148438 34.605469 2.824219 8.222656 7.824219 15.300781 14.449219 20.605468l-10.0625 20.582032c-2.425781 4.960937-.367187 10.949218 4.59375 13.375 1.414063.691406 2.910157 1.019531 4.382813 1.019531 3.703125 0 7.257812-2.0625 8.992187-5.613281l54.863281-111.8125h29.167969v.613281c0 14.800781 12.039063 26.839844 26.835938 26.839844 14.800781 0 26.839843-12.039063 26.839843-26.839844v-.613281h28.9375l17.8125 36.050781c-1.742187 1.605469-3.460937 3.253906-5.144531 4.9375-26.773437 26.773437-43.714843 61.578125-48.292969 98.835937h-10.296874c-5.523438 0-10 4.480469-10 10v58.226563c0 5.523437 4.476562 10 10 10h356.445312c5.523438 0 10-4.476563 10-10v-58.226563c0-5.523437-4.476562-10-10-10zm-378.152344-413.757812h23.707032v32.089844h-23.707032zm14.726563 52.085938v9.046874c-.953125-.046874-1.910157-.070312-2.875-.070312-.960938 0-1.917969.023438-2.871094.070312v-9.042968h5.746094zm-2.875 28.976562c22.351562 0 40.539062 18.183594 40.539062 40.535156 0 22.351563-18.183593 40.535156-40.539062 40.535156-22.351563 0-40.535157-18.183593-40.535157-40.535156 0-22.351562 18.183594-40.535156 40.535157-40.535156zm-109.574219 256.503906c-2.0625-2.402344-3.671875-5.199218-4.730469-8.28125-2.195312-6.394531-1.769531-13.257812 1.1875-19.308594l71.1875-144.753906c3.738281 3.59375 7.9375 6.714844 12.496094 9.261719zm116.414062-63.019531c0 3.769531-3.066406 6.839844-6.839843 6.839844-3.769531 0-6.835938-3.066407-6.835938-6.839844v-21.230469c0-3.773437 3.066407-6.839844 6.835938-6.839844 3.773437 0 6.839843 3.066407 6.839843 6.839844zm20-20.617187v-.613282c0-14.800781-12.039062-26.839844-26.839843-26.839844-14.796875 0-26.835938 12.039063-26.835938 26.839844v.613282h-19.34375l35.714844-72.703126c3.398437.597657 6.898437.90625 10.464844.90625 3.414062 0 6.757812-.285156 10.015625-.828124l35.878906 72.625zm2.21875-79.238282c4.578126-2.511718 8.796876-5.601562 12.558594-9.167968l60.882813 123.003906c-4.449219 2.617187-8.792969 5.449218-13.011719 8.484375zm53.527344 154.375c28.175782-28.179687 65.640625-43.695312 105.492188-43.695312 39.847656 0 77.3125 15.515625 105.492187 43.695312 23.023438 23.023438 37.800781 52.769532 42.261719 84.691406h-40.117188c-4.511718-23.15625-16.511718-44.378906-34.367187-60.492187-20.25-18.277344-46.273437-28.34375-73.269531-28.34375-27 0-53.019532 10.066406-73.273438 28.34375-17.851562 16.117187-29.851562 37.335937-34.363281 60.492187h-40.117187c4.457031-31.921874 19.234374-61.667968 42.261718-84.691406zm192.652344 84.691406h-174.324219c9.589844-39.386718 45.894531-68.839843 87.164063-68.839843 41.269531 0 77.574218 29.453125 87.160156 68.839843zm81.0625 58.226563h-336.449219v-9.113281h259.242188c5.523437 0 10-4.476563 10-10 0-5.519532-4.476563-10-10-10h-259.242188v-9.113282h336.449219zm0 0" fill="#000000"/></g><g transform="matrix(0.1171877309679985 0 0 0.1171877309679985 96 24)" id="L1_7"><path d="M416.323,0H95.677C73.862,0,56.113,17.748,56.113,39.564v432.871c0,21.816,17.749,39.564,39.564,39.564h320.645    c21.815,0,39.564-17.748,39.564-39.564V39.564C455.887,17.748,438.138,0,416.323,0z M71.113,39.564    C71.113,26.02,82.133,15,95.677,15h320.645c13.545,0,24.564,11.02,24.564,24.564v152.822H71.113V39.564z M440.887,472.436    c0,13.544-11.02,24.564-24.564,24.564H95.677c-13.545,0-24.564-11.02-24.564-24.564V207.387h369.774V472.436z"/><path d="M344.176,48.096h-224.45c-8.556,0-15.516,6.961-15.516,15.517v80.161c0,8.556,6.96,15.516,15.516,15.516h16.032    c4.142,0,7.5-3.357,7.5-7.5s-3.358-7.5-7.5-7.5h-16.032c-0.285,0-0.516-0.231-0.516-0.516V63.613c0-0.285,0.231-0.517,0.516-0.517    h224.45c4.143,0,7.5-3.357,7.5-7.5S348.319,48.096,344.176,48.096z"/><path d="M392.275,48.096h-16.032c-4.143,0-7.5,3.357-7.5,7.5s3.357,7.501,7.499,7.501h16.032c0.284,0,0.516,0.231,0.516,0.517    v80.161c0,0.284-0.231,0.516-0.516,0.516h-224.45c-4.142,0-7.5,3.357-7.5,7.5s3.358,7.5,7.5,7.5h224.451    c8.556,0,15.516-6.96,15.516-15.516V63.613C407.791,55.057,400.831,48.096,392.275,48.096z"/><path d="M215.92,240.483c-17.396,0-31.548,14.152-31.548,31.549c0,17.397,14.152,31.549,31.548,31.549    c17.396,0,31.548-14.152,31.548-31.549C247.468,254.635,233.316,240.483,215.92,240.483z M215.92,288.581    c-9.125,0-16.548-7.424-16.548-16.549s7.423-16.549,16.548-16.549s16.548,7.424,16.548,16.549S225.045,288.581,215.92,288.581z"/><path d="M215.92,320.646c-17.396,0-31.548,14.152-31.548,31.548s14.152,31.549,31.548,31.549    c17.396,0,31.548-14.152,31.548-31.549C247.468,334.798,233.316,320.646,215.92,320.646z M215.92,368.742    c-9.125,0-16.548-7.424-16.548-16.549s7.423-16.548,16.548-16.548s16.548,7.423,16.548,16.548S225.045,368.742,215.92,368.742z"/><path d="M215.92,400.807c-17.396,0-31.548,14.152-31.548,31.548s14.152,31.549,31.548,31.549    c17.396,0,31.548-14.152,31.548-31.549C247.468,414.959,233.316,400.807,215.92,400.807z M215.92,448.903    c-9.125,0-16.548-7.424-16.548-16.549s7.423-16.548,16.548-16.548s16.548,7.423,16.548,16.548S225.045,448.903,215.92,448.903z"/><path d="M296.081,240.483c-17.396,0-31.549,14.152-31.549,31.549c0,17.397,14.152,31.549,31.549,31.549    c17.396,0,31.548-14.152,31.548-31.549C327.629,254.635,313.477,240.483,296.081,240.483z M296.081,288.581    c-9.125,0-16.549-7.424-16.549-16.549s7.424-16.549,16.549-16.549s16.548,7.424,16.548,16.549S305.206,288.581,296.081,288.581z"/><path d="M296.081,320.646c-17.396,0-31.549,14.152-31.549,31.548s14.152,31.549,31.549,31.549    c17.396,0,31.548-14.152,31.548-31.549C327.629,334.798,313.477,320.646,296.081,320.646z M296.081,368.742    c-9.125,0-16.549-7.424-16.549-16.549s7.424-16.548,16.549-16.548s16.548,7.423,16.548,16.548S305.206,368.742,296.081,368.742z"/><path d="M296.081,400.807c-17.396,0-31.549,14.152-31.549,31.548s14.152,31.549,31.549,31.549    c17.396,0,31.548-14.152,31.548-31.549C327.629,414.959,313.477,400.807,296.081,400.807z M296.081,448.903    c-9.125,0-16.549-7.424-16.549-16.549s7.424-16.548,16.549-16.548s16.548,7.423,16.548,16.548S305.206,448.903,296.081,448.903z"/><path d="M135.759,240.483c-17.396,0-31.549,14.152-31.549,31.549c0,17.397,14.153,31.549,31.549,31.549    s31.548-14.152,31.548-31.549C167.307,254.635,153.155,240.483,135.759,240.483z M135.759,288.581    c-9.125,0-16.549-7.424-16.549-16.549s7.424-16.549,16.549-16.549s16.548,7.424,16.548,16.549S144.884,288.581,135.759,288.581z"/><path d="M135.759,320.646c-17.396,0-31.549,14.152-31.549,31.548s14.153,31.549,31.549,31.549s31.548-14.152,31.548-31.549    C167.307,334.798,153.155,320.646,135.759,320.646z M135.759,368.742c-9.125,0-16.549-7.424-16.549-16.549    s7.424-16.548,16.549-16.548s16.548,7.423,16.548,16.548S144.884,368.742,135.759,368.742z"/><path d="M135.759,400.807c-17.396,0-31.549,14.152-31.549,31.548s14.153,31.549,31.549,31.549s31.548-14.152,31.548-31.549    C167.307,414.959,153.155,400.807,135.759,400.807z M135.759,448.903c-9.125,0-16.549-7.424-16.549-16.549    s7.424-16.548,16.549-16.548s16.548,7.423,16.548,16.548S144.884,448.903,135.759,448.903z"/><path d="M376.242,240.483c-17.396,0-31.549,14.152-31.549,31.549c0,17.397,14.152,31.549,31.549,31.549    c17.396,0,31.548-14.152,31.548-31.549C407.79,254.635,393.638,240.483,376.242,240.483z M376.242,288.581    c-9.125,0-16.549-7.424-16.549-16.549s7.424-16.549,16.549-16.549s16.548,7.424,16.548,16.549S385.367,288.581,376.242,288.581z"/><path d="M376.242,320.646c-17.396,0-31.549,14.152-31.549,31.548v80.161c0,17.396,14.152,31.549,31.549,31.549    c17.396,0,31.548-14.152,31.548-31.549v-80.161C407.79,334.798,393.638,320.646,376.242,320.646z M392.79,432.354    c0,9.125-7.424,16.549-16.548,16.549c-9.125,0-16.549-7.424-16.549-16.549v-80.161c0-9.125,7.424-16.548,16.549-16.548    c9.124,0,16.548,7.423,16.548,16.548V432.354z"/></g><g transform="matrix(0.1171875 0 0 0.1171875 274 188.00000188827585)" id="L1_9"><path d="M512,255.997c0-37.336-38.518-69.932-99.234-90.555c1.516-7.607,2.766-15.084,3.669-22.367    C423.157,88.88,411.639,50.247,384,34.293c-27.648-15.94-66.843-6.616-110.426,26.301c-5.854,4.424-11.706,9.245-17.535,14.364    C207.817,32.686,160.322,15.619,128,34.294c-27.63,15.954-39.148,54.588-32.435,108.782c0.903,7.282,2.153,14.759,3.671,22.366    C38.518,186.066,0,218.661,0,255.997c0,37.331,38.509,69.922,99.208,90.546C86.734,409.398,95.683,459.039,128,477.701    c8.805,5.079,18.722,7.514,29.482,7.514c28.757,0,63.461-17.426,98.551-48.184c5.831,5.12,11.685,9.944,17.542,14.369    c29.685,22.421,57.343,33.903,80.694,33.903c10.935,0,20.926-2.518,29.732-7.602c27.639-15.958,39.157-54.588,32.435-108.782    c-0.903-7.282-2.153-14.759-3.669-22.367C473.482,325.929,512,293.334,512,255.997z M285.009,75.729    c26.111-19.727,50.213-30.014,69.259-30.014c7.621,0,14.445,1.648,20.25,5.005c20.324,11.727,28.741,44.542,23.102,90.023    c-0.771,6.218-1.792,12.581-3.042,19.063c-22.664-6.375-47.852-11.199-74.861-14.168c-16.074-21.904-32.845-41.302-49.699-57.743    C275.007,83.571,280.009,79.506,285.009,75.729z M139.491,279.319c5.551,11.218,11.546,22.433,17.972,33.567    c6.433,11.14,13.153,21.944,20.095,32.365c-19.919-2.897-38.694-6.852-55.877-11.686    C126.086,316.26,132.037,298.027,139.491,279.319z M139.431,232.775c-7.412-18.531-13.421-36.771-17.845-54.318    c17.211-4.847,36.016-8.81,55.972-11.713c-6.942,10.42-13.662,21.225-20.095,32.365    C150.963,210.37,144.961,221.612,139.431,232.775z M173.889,303.405c-9.074-15.714-17.229-31.568-24.454-47.335    c7.173-15.737,15.315-31.65,24.454-47.48c9.081-15.727,18.741-30.727,28.792-44.875c17.201-1.653,35.058-2.532,53.319-2.532    c18.248,0,36.09,0.878,53.28,2.528c10.025,14.062,19.708,29.078,28.831,44.88c9.088,15.74,17.255,31.618,24.486,47.407    c-7.232,15.789-15.398,31.668-24.486,47.407c-9.123,15.803-18.806,30.817-28.829,44.88c-17.19,1.65-35.035,2.528-53.282,2.528    c-18.262,0-36.118-0.88-53.319-2.531C192.63,334.131,182.97,319.131,173.889,303.405z M354.537,312.886    c6.449-11.171,12.463-22.422,18.028-33.678c7.414,18.535,13.428,36.778,17.852,54.329c-17.208,4.847-36.018,8.813-55.977,11.714    C341.326,334.903,348.051,324.121,354.537,312.886z M372.564,232.786c-5.564-11.255-11.578-22.506-18.027-33.678    c-6.482-11.226-13.19-22.021-20.072-32.361c19.951,2.903,38.748,6.866,55.951,11.71    C385.992,196.009,379.978,214.251,372.564,232.786z M255.949,100.821c12.796,12.477,25.625,26.775,38.113,42.6    c-12.396-0.788-25.099-1.201-38.062-1.201c-12.998,0-25.736,0.416-38.164,1.208C230.176,127.746,242.965,113.423,255.949,100.821z     M137.482,50.72c24.593-14.22,63.657,1.521,104.53,37.22c-17.104,16.698-33.84,36.156-49.664,57.692    c-27.032,2.968-52.238,7.793-74.919,14.172c-1.25-6.48-2.268-12.844-3.039-19.061C108.75,95.261,117.167,62.446,137.482,50.72z     M18.963,255.997c0-28.401,33.157-54.361,84.502-71.911c5.91,23.162,14.394,47.387,25.132,71.86    c-10.947,24.897-19.333,49.121-25.148,71.956C52.114,310.354,18.963,284.395,18.963,255.997z M137.482,461.275    c-24.583-14.194-30.468-55.874-20.014-109.073c22.671,6.374,47.864,11.195,74.88,14.162    c15.824,21.532,32.558,40.988,49.657,57.685C201.137,459.737,162.072,475.474,137.482,461.275z M255.945,411.17    c-12.984-12.602-25.768-26.924-38.109-42.603c12.428,0.793,25.167,1.208,38.164,1.208c12.963,0,25.667-0.413,38.06-1.201    C281.572,384.397,268.741,398.694,255.945,411.17z M374.518,461.275c-20.296,11.755-52.944,2.611-89.509-25.009    c-5.005-3.781-10.012-7.852-15.007-12.18c16.857-16.44,33.628-35.82,49.706-57.727c27.012-2.969,52.204-7.794,74.87-14.169    c1.25,6.482,2.271,12.845,3.042,19.063C403.259,416.733,394.843,449.548,374.518,461.275z M408.537,327.908    c-5.915-23.177-14.403-47.419-25.153-71.911c10.75-24.492,19.238-48.734,25.153-71.911c51.342,17.55,84.5,43.51,84.5,71.911    C493.037,284.398,459.88,310.36,408.537,327.908z"/><path d="M256,208.59c-26.139,0-47.407,21.268-47.407,47.407c0,26.139,21.269,47.407,47.407,47.407s47.407-21.269,47.407-47.407    C303.407,229.858,282.139,208.59,256,208.59z M256,284.442c-15.685,0-28.444-12.759-28.444-28.444s12.759-28.444,28.444-28.444    s28.444,12.759,28.444,28.444S271.685,284.442,256,284.442z"/></g><g transform="matrix(0.1171875 0 0 0.1171875 295.0000002929687 24.99999912109388)" id="L1_13"><path d="m478 336c-15.269531 0-28.21875 10.117188-32.496094 24h-65.324218v-185.558594c13.789062-4.335937 23.820312-17.238281 23.820312-32.441406 0-5.742188-1.4375-11.152344-3.960938-15.898438l62.0625-62.0625c1.871094.996094 3.84375 1.824219 5.898438 2.457032v202.503906c0 5.523438 4.476562 10 10 10s10-4.476562 10-10v-202.503906c13.882812-4.28125 24-17.226563 24-32.496094 0-18.746094-15.253906-34-34-34-15.269531 0-28.21875 10.117188-32.496094 24h-271.007812c-4.277344-13.882812-17.226563-24-32.496094-24-18.746094 0-34 15.253906-34 34 0 5.371094 1.257812 10.457031 3.488281 14.980469l-62.507812 62.507812c-4.523438-2.230469-9.605469-3.488281-14.980469-3.488281-18.746094 0-34 15.253906-34 34s15.253906 34 34 34c15.269531 0 28.21875-10.117188 32.496094-24h65.503906v185.503906c-13.882812 4.28125-24 17.226563-24 32.496094 0 6.488281 1.828125 12.558594 4.996094 17.722656l-61.273438 61.273438c-2.34375-1.4375-4.871094-2.597656-7.542968-3.4375v-211.558594c0-5.523438-4.480469-10-10-10-5.523438 0-10 4.476562-10 10v211.453125c-13.976563 4.222656-24.179688 17.214844-24.179688 32.546875 0 18.746094 15.253906 34 34 34 15.269531 0 28.21875-10.117188 32.496094-24h271.007812c4.277344 13.882812 17.226563 24 32.496094 24 18.746094 0 34-15.253906 34-34 0-4.980469-1.085938-9.710938-3.019531-13.976562l63.042969-63.042969c4.265624 1.933593 8.996093 3.019531 13.976562 3.019531 18.746094 0 34-15.253906 34-34s-15.253906-34-34-34zm-32.496094 44c.84375 2.738281 2.023438 5.328125 3.492188 7.722656l-61.273438 61.273438c-2.34375-1.4375-4.871094-2.597656-7.542968-3.4375v-65.558594zm-108 88h-271.007812c-.421875-1.367188-.933594-2.691406-1.515625-3.976562l63.042969-63.042969c4.265624 1.933593 8.996093 3.019531 13.976562 3.019531 15.269531 0 28.21875-10.117188 32.496094-24h185.683594v65.453125c-10.804688 3.265625-19.355469 11.769531-22.675782 22.546875zm33.984375-312.082031c-.429687-.058594-.867187-.097657-1.3125-.097657-.484375 0-.960937.046876-1.429687.117188-7.132813-.636719-12.746094-6.640625-12.746094-13.9375 0-7.71875 6.28125-14 14-14s14 6.28125 14 14c0 7.21875-5.488281 13.171875-12.511719 13.917969zm-33.984375-23.917969h-185.503906v-65.503906c10.71875-3.304688 19.191406-11.777344 22.496094-22.496094h271.007812c.632813 2.054688 1.460938 4.027344 2.457032 5.898438l-62.0625 62.058593c-4.746094-2.519531-10.15625-3.957031-15.898438-3.957031-15.269531 0-28.21875 10.117188-32.496094 24zm140.496094-112c7.71875 0 14 6.28125 14 14s-6.28125 14-14 14c-3.734375 0-7.125-1.480469-9.636719-3.871094-.082031-.085937-.152343-.175781-.234375-.257812-.082031-.085938-.171875-.152344-.257812-.234375-2.390625-2.511719-3.871094-5.902344-3.871094-9.636719 0-7.71875 6.28125-14 14-14zm-336 0c7.71875 0 14 6.28125 14 14s-6.28125 14-14 14-14-6.28125-14-14 6.28125-14 14-14zm-108 136c-7.71875 0-14-6.28125-14-14s6.28125-14 14-14 14 6.28125 14 14-6.28125 14-14 14zm32.496094-24c-.734375-2.386719-1.734375-4.660156-2.949219-6.792969l61.660156-61.660156c2.132813 1.214844 4.40625 2.214844 6.792969 2.949219v65.503906zm271.007812 20c3.320313 10.777344 11.871094 19.28125 22.675782 22.546875v185.453125h-185.683594c-3.304688-10.71875-11.777344-19.191406-22.496094-22.496094v-185.503906zm-195.503906 204c7.71875 0 14 6.28125 14 14s-6.28125 14-14 14-14-6.28125-14-14 6.28125-14 14-14zm-108 136c-7.71875 0-14-6.28125-14-14 0-7.296875 5.613281-13.300781 12.746094-13.9375.46875.066406.945312.113281 1.433594.113281.441406 0 .878906-.039062 1.308593-.09375 7.023438.746094 12.511719 6.699219 12.511719 13.917969 0 7.71875-6.28125 14-14 14zm336 0c-7.71875 0-14-6.28125-14-14 0-7.296875 5.613281-13.300781 12.746094-13.9375.46875.066406.945312.113281 1.433594.113281.441406 0 .878906-.039062 1.308593-.09375 7.023438.746094 12.511719 6.699219 12.511719 13.917969 0 7.71875-6.28125 14-14 14zm108-108c-7.71875 0-14-6.28125-14-14s6.28125-14 14-14 14 6.28125 14 14-6.28125 14-14 14zm0 0"/><path d="m34.179688 212c2.628906 0 5.210937-1.070312 7.070312-2.929688 1.859375-1.859374 2.929688-4.441406 2.929688-7.070312s-1.070313-5.210938-2.929688-7.070312c-1.859375-1.859376-4.441406-2.929688-7.070312-2.929688-2.640626 0-5.210938 1.070312-7.070313 2.929688-1.867187 1.859374-2.929687 4.441406-2.929687 7.070312s1.0625 5.210938 2.929687 7.070312c1.859375 1.859376 4.441406 2.929688 7.070313 2.929688zm0 0"/><path d="m478 296.671875c-2.628906 0-5.210938 1.058594-7.070312 2.917969-1.859376 1.871094-2.929688 4.441406-2.929688 7.082031 0 2.628906 1.070312 5.207031 2.929688 7.066406 1.859374 1.863281 4.441406 2.933594 7.070312 2.933594 2.640625 0 5.210938-1.070313 7.070312-2.933594 1.859376-1.867187 2.929688-4.4375 2.929688-7.066406 0-2.632813-1.070312-5.210937-2.929688-7.082031-1.859374-1.859375-4.441406-2.917969-7.070312-2.917969zm0 0"/></g><g transform="matrix(0.1171875 0 0 0.1171875 19.000000703124897 271)" id="L1_14"><path d="m308.191406 107.378906c-26.398437-26.726562-61.609375-41.710937-99.144531-42.199218-38.074219-.496094-74.070313 14.035156-101.378906 40.910156-27.292969 26.859375-42.386719 62.601562-42.5 100.644531-.121094 41.175781 17.609375 80.332031 48.644531 107.429687 22.46875 19.617188 35.355469 47.515626 35.355469 76.53125v71.636719c0 27.386719 22.28125 49.667969 49.667969 49.667969h16.667968c27.382813 0 49.664063-22.28125 49.664063-49.667969v-70.71875c0-29.84375 12.640625-57.859375 34.683593-76.867187 31.339844-27.019532 49.316407-66.234375 49.316407-107.578125 0-37.601563-14.550781-73.042969-40.976563-99.789063zm-101.148437 171.773438h-6.632813c-3.625 0-6.574218-2.949219-6.574218-6.578125 0-3.625 2.949218-6.574219 6.574218-6.574219 3.65625 0 6.632813 2.976562 6.632813 6.632812zm.125 59.433594c5.515625 0 10 4.484374 10 10v34h-20v-34c0-5.515626 4.484375-10 10-10zm38 64v14.707031h-76v-14.707031zm-76 34.707031h76v14.707031h-76zm46.332031 54.707031h-16.664062c-12.976563 0-24.023438-8.375-28.042969-20h72.75c-4.019531 11.625-15.066407 20-28.042969 20zm71.292969-192.398438c-24.207031 20.871094-38.96875 50.726563-41.300781 82.984376h-8.324219v-34c0-8.929688-3.925781-16.953126-10.132813-22.453126 0-.042968.007813-.085937.007813-.132812v-32.867188c8.144531-5.84375 13.457031-15.390624 13.457031-26.15625v-15.488281c0-21.304687-17.332031-38.640625-38.640625-38.640625h-18.023437c-5.523438 0-10 4.476563-10 10 0 5.523438 4.476562 10 10 10h18.023437c10.28125 0 18.640625 8.363282 18.640625 18.640625v3.679688c-4.886719-5.613281-12.078125-9.167969-20.089844-9.167969-14.652344 0-26.574218 11.921875-26.574218 26.578125 0 14.652344 11.921874 26.574219 26.574218 26.574219h6.632813v19.4375c-16.484375.066406-29.875 13.496094-29.875 29.996094v34h-8.277344c-2.191406-31.832032-17.195313-61.898438-41.921875-83.488282-26.671875-23.28125-41.90625-56.925781-41.800781-92.300781.097656-32.664063 13.070312-63.367187 36.53125-86.453125 23.472656-23.101562 54.375-35.59375 87.085937-35.164062 66.378906.859374 120.382813 55.585937 120.382813 121.988281 0 35.523437-15.445313 69.210937-42.375 92.433593zm0 0"/><path d="m209.1875 113.820312h-.15625c-5.511719-.054687-10 4.363282-10.066406 9.882813-.0625 5.523437 4.410156 10.054687 9.933594 10.117187h.152343.121094c5.464844 0 9.882813-4.398437 9.945313-9.882812.066406-5.523438-4.40625-10.050781-9.929688-10.117188zm0 0"/><path d="m253.175781 125.554688c-4.828125-2.6875-10.917969-.953126-13.605469 3.875-2.683593 4.824218-.953124 10.914062 3.875 13.601562 23.269532 12.957031 37.722657 37.53125 37.722657 64.136719 0 5.523437 4.476562 10 10 10 5.523437 0 10-4.476563 10-10 0-33.855469-18.390625-65.125-47.992188-81.613281zm0 0"/><path d="m207.167969 47c5.523437 0 10-4.476562 10-10v-27c0-5.523438-4.476563-10-10-10-5.523438 0-10 4.476562-10 10v27c0 5.523438 4.476562 10 10 10zm0 0"/><path d="m404.335938 197.167969h-27c-5.523438 0-10 4.476562-10 10 0 5.523437 4.476562 10 10 10h27c5.523437 0 10-4.476563 10-10 0-5.523438-4.476563-10-10-10zm0 0"/><path d="m37 197.167969h-27c-5.523438 0-10 4.476562-10 10 0 5.523437 4.476562 10 10 10h27c5.523438 0 10-4.476563 10-10 0-5.523438-4.476562-10-10-10zm0 0"/><path d="m334.566406 320.425781c-3.90625-3.90625-10.238281-3.90625-14.144531 0-3.902344 3.902344-3.902344 10.234375 0 14.140625l19.09375 19.09375c1.953125 1.949219 4.511719 2.929688 7.070313 2.929688 2.558593 0 5.117187-.980469 7.070312-2.929688 3.90625-3.90625 3.90625-10.238281 0-14.144531zm0 0"/><path d="m79.769531 93.910156c1.953125 1.953125 4.511719 2.929688 7.070313 2.929688s5.121094-.976563 7.070312-2.929688c3.90625-3.902344 3.90625-10.234375 0-14.140625l-19.089844-19.09375c-3.90625-3.902343-10.238281-3.902343-14.144531 0-3.90625 3.90625-3.902343 10.238281 0 14.144531zm0 0"/><path d="m339.515625 60.679688-19.089844 19.089843c-3.90625 3.90625-3.90625 10.238281 0 14.144531 1.953125 1.953126 4.511719 2.929688 7.070313 2.929688s5.117187-.976562 7.070312-2.929688l19.089844-19.09375c3.90625-3.90625 3.90625-10.238281 0-14.144531-3.902344-3.90625-10.234375-3.902343-14.140625.003907zm0 0"/><path d="m79.769531 320.425781-19.089843 19.089844c-3.90625 3.90625-3.90625 10.238281 0 14.144531 1.953124 1.949219 4.511718 2.929688 7.070312 2.929688s5.117188-.980469 7.070312-2.929688l19.089844-19.09375c3.90625-3.90625 3.90625-10.238281 0-14.140625-3.902344-3.90625-10.234375-3.90625-14.140625 0zm0 0"/></g><g transform="matrix(0.12096773833036423 0 0 0.12096773833036423 128 253)" id="L1_17"><path d="m312 0h-304c-4.414062 0-8 3.585938-8 8v480c0 4.414062 3.585938 8 8 8h304c4.414062 0 8-3.585938 8-8v-480c0-4.414062-3.585938-8-8-8zm-8 480h-288v-464h288zm0 0"/><path d="m56 144h32c4.414062 0 8-3.585938 8-8v-32c0-4.414062-3.585938-8-8-8h-32c-4.414062 0-8 3.585938-8 8v32c0 4.414062 3.585938 8 8 8zm8-32h16v16h-16zm0 0"/><path d="m56 208h32c4.414062 0 8-3.585938 8-8v-32c0-4.414062-3.585938-8-8-8h-32c-4.414062 0-8 3.585938-8 8v32c0 4.414062 3.585938 8 8 8zm8-32h16v16h-16zm0 0"/><path d="m56 272h32c4.414062 0 8-3.585938 8-8v-32c0-4.414062-3.585938-8-8-8h-32c-4.414062 0-8 3.585938-8 8v32c0 4.414062 3.585938 8 8 8zm8-32h16v16h-16zm0 0"/><path d="m56 336h32c4.414062 0 8-3.585938 8-8v-32c0-4.414062-3.585938-8-8-8h-32c-4.414062 0-8 3.585938-8 8v32c0 4.414062 3.585938 8 8 8zm8-32h16v16h-16zm0 0"/><path d="m56 400h32c4.414062 0 8-3.585938 8-8v-32c0-4.414062-3.585938-8-8-8h-32c-4.414062 0-8 3.585938-8 8v32c0 4.414062 3.585938 8 8 8zm8-32h16v16h-16zm0 0"/><path d="m80 32h160v16h-160zm0 0"/><path d="m112 64h88v16h-88zm0 0"/><path d="m128 112h144v16h-144zm0 0"/><path d="m128 176h144v16h-144zm0 0"/><path d="m128 240h144v16h-144zm0 0"/><path d="m128 304h144v16h-144zm0 0"/><path d="m128 368h144v16h-144zm0 0"/><path d="m391.664062 53.703125c-1.015624-3.382813-4.136718-5.703125-7.664062-5.703125s-6.648438 2.320312-7.664062 5.703125l-24 80c-.222657.746094-.335938 1.519531-.335938 2.296875v352c0 4.414062 3.585938 8 8 8h48c4.414062 0 8-3.585938 8-8v-352c0-.777344-.113281-1.550781-.335938-2.296875zm-7.664062 30.136719 13.246094 44.160156h-26.492188zm16 60.160156v288h-32v-288zm-32 336v-32h32v32zm0 0"/><path d="m488 336v-256c0-1.015625-.191406-2.023438-.566406-2.976562l-16-40c-1.226563-3.03125-4.160156-5.023438-7.433594-5.023438s-6.207031 1.992188-7.433594 5.023438l-16 40c-.375.953124-.566406 1.960937-.566406 2.976562v256c-4.414062 0-8 3.585938-8 8v96c0 4.414062 3.585938 8 8 8v40c0 4.414062 3.585938 8 8 8h32c4.414062 0 8-3.585938 8-8v-40c4.414062 0 8-3.585938 8-8v-96c0-4.414062-3.585938-8-8-8zm-24-274.464844 7.382812 18.464844h-14.765624zm-8 34.464844h16v240h-16zm24 336h-32v-80h32zm-8 48h-16v-32h16zm0 0"/></g><g transform="matrix(0.12096737325191498 0 0 0.12096737325191498 23 119)" id="L1_18"><path d="m488 320c4.414062 0 8-3.574219 8-8v-304c0-4.421875-3.585938-8-8-8h-480c-4.414062 0-8 3.578125-8 8v304c0 4.425781 3.585938 8 8 8h133.527344l-45.246094 165.898438c-.65625 2.398437-.152344 4.972656 1.359375 6.957031 1.519531 1.976562 3.863281 3.144531 6.359375 3.144531h32c3.609375 0 6.769531-2.414062 7.71875-5.894531l46.394531-170.105469h33.886719v168c0 4.425781 3.585938 8 8 8h32c4.414062 0 8-3.574219 8-8v-168h34.230469l26.722656 80.152344c-25.050781 1.585937-44.953125 22.410156-44.953125 47.847656 0 26.472656 21.527344 48 48 48h152c3.230469 0 6.152344-1.941406 7.390625-4.933594 1.242187-2.992187.554687-6.433594-1.734375-8.722656l-26.335938-26.34375c-2.144531-2.144531-3.320312-4.976562-3.320312-8s1.175781-5.855469 3.3125-8l26.34375-26.34375c2.289062-2.289062 2.976562-5.726562 1.734375-8.71875-1.238281-2.992188-4.160156-4.9375-7.390625-4.9375h-106.230469l-26.664062-80zm-472-304h464v288h-464zm113.886719 464h-15.414063l43.640625-160h15.414063zm126.113281 0h-16v-160h16zm48-32c0-17.648438 14.351562-32 32-32v64c-17.648438 0-32-14.351562-32-32zm152-19.3125c-5.160156 5.167969-8 12.023438-8 19.3125s2.839844 14.152344 8 19.3125l12.6875 12.6875h-116.6875v-24h64v-16h-64v-24h116.6875zm-91.105469-28.6875h-15.132812l-26.664063-80h15.132813zm0 0"/><path d="m456 32h-416c-4.414062 0-8 3.578125-8 8v240c0 4.425781 3.585938 8 8 8h416c4.414062 0 8-3.574219 8-8v-240c0-4.421875-3.585938-8-8-8zm-56 240h-48v-16h48zm48 0h-32v-24c0-4.421875-3.585938-8-8-8h-64c-4.414062 0-8 3.578125-8 8v24h-288v-224h400zm0 0"/><path d="m113.574219 229.898438c.335937-.226563.707031-.265626 1.097656-.128907.382813.160157.632813.429688.734375.832031 1.648438 6.582032 6.816406 11.464844 13.480469 12.726563 6.640625 1.265625 13.257812-1.367187 17.203125-6.894531l18.910156-26.480469c.105469-.144531.441406-.617187 1.113281-.496094.695313.078125.910157.558594.976563.710938l10.871094 25.375c2.488281 5.808593 7.941406 9.769531 14.230468 10.347656 6.328125.535156 12.382813-2.335937 16.234375-8.121094.207031-.3125.511719-.496093.886719-.519531.390625-.050781.695312.078125.96875.34375l10.421875 10.421875c6 6.007813 15.671875 6.6875 22.480469 1.59375l25.617187-19.207031-9.601562-12.800782-25.613281 19.207032c-.488282.351562-1.152344.296875-1.570313-.113282l-10.414063-10.40625c-3.65625-3.664062-8.730468-5.457031-13.847656-4.96875-5.152344.503907-9.761718 3.265626-12.984375 8.113282-.097656.144531-.378906.511718-1.113281.527344-.710938-.070313-.929688-.558594-.992188-.71875l-10.871093-25.378907c-2.488281-5.78125-7.703125-9.636719-13.960938-10.308593-6.273437-.699219-12.175781 1.972656-15.847656 7.101562l-18.921875 26.488281c-.117188.167969-.4375.609375-1.191406.480469-.75-.144531-.886719-.6875-.941406-.886719-1.355469-5.425781-5.28125-9.859375-10.488282-11.875-5.210937-2.015625-11.105468-1.367187-15.746094 1.738281l-37.136718 24.757813 8.875 13.3125zm0 0"/><path d="m72 160h184v16h-184zm0 0"/><path d="m72 96h184v16h-184zm0 0"/><path d="m72 128h184v16h-184zm0 0"/><path d="m296 216c1 0 2.007812-.183594 2.976562-.566406l40-16c1-.410156 1.917969-1.007813 2.679688-1.777344l88-88c3.128906-3.128906 3.128906-8.183594 0-11.3125l-24-24c-3.128906-3.128906-8.183594-3.128906-11.3125 0l-88 88c-.769531.769531-1.367188 1.679688-1.777344 2.6875l-16 40c-1.183594 2.96875-.488281 6.363281 1.777344 8.625 1.527344 1.527344 3.578125 2.34375 5.65625 2.34375zm48-43.3125-12.6875-12.6875 44.6875-44.6875 12.6875 12.6875zm56-81.375 12.6875 12.6875-12.6875 12.6875-12.6875-12.6875zm-81.183594 81.183594 1.183594-1.183594 12.6875 12.6875-1.183594 1.183594-21.144531 8.464844zm0 0"/></g><g transform="matrix(0.1171875 0 0 0.1171875 199 74.00000005859374)" id="L1_20"><path d="m361.414062 443.589844-108.269531-263.902344c-6.003906-14.640625-9.050781-30.085938-9.050781-45.910156v-69.757813c0-7.511719 2.925781-14.574219 8.238281-19.886719 6.476563-6.476562 10.046875-15.089843 10.046875-24.25v-9.882812c0-5.523438-4.480468-10-10-10h-139.621094c-5.523437 0-10 4.476562-10 10v9.882812c0 9.160157 3.566407 17.773438 10.042969 24.25 5.3125 5.3125 8.238281 12.375 8.238281 19.890626v69.753906c0 15.824218-3.042968 31.269531-9.050781 45.910156l-29.75 72.515625c-.011719.027344-.023437.054687-.035156.082031l-78.484375 191.304688c-6.285156 15.324218-4.53125 32.6875 4.695312 46.441406 9.226563 13.757812 24.621094 21.96875 41.183594 21.96875h265.9375c16.5625 0 31.960938-8.210938 41.1875-21.96875 9.222656-13.757812 10.976563-31.117188 4.691406-46.441406zm-230.921874-256.3125c7-17.058594 10.546874-35.058594 10.546874-53.5v-69.757813c0-12.851562-5.003906-24.9375-14.09375-34.027343-2.671874-2.671876-4.15625-6.21875-4.1875-9.992188h119.621094c-.03125 3.773438-1.515625 7.316406-4.191406 9.992188-9.085938 9.089843-14.09375 21.171874-14.09375 34.027343v69.753907c0 18.441406 3.550781 36.441406 10.546875 53.5l24.144531 58.851562h-152.4375zm209.617187 291.613281c-5.585937 8.332031-14.542969 13.109375-24.574219 13.109375h-265.9375c-10.027344 0-18.984375-4.777344-24.574218-13.109375-4.214844-6.285156-5.824219-13.574219-4.730469-20.761719h16.476562c5.519531 0 10-4.480468 10-10 0-5.523437-4.480469-10-10-10h-9.1875l11.484375-28h16.867188c5.523437 0 10-4.480468 10-10 0-5.523437-4.476563-10-10-10h-8.660156l11.484374-28h17.34375c5.523438 0 10-4.480468 10-10 0-5.523437-4.476562-10-10-10h-9.136718l11.488281-28h17.8125c5.523437 0 10-4.480468 10-10 0-5.523437-4.476563-10-10-10h-9.609375l11.488281-28h168.84375l75.921875 185.054688c3.804688 9.277344 2.785156 19.378906-2.800781 27.707031zm0 0"/><path d="m312.03125 444.214844c-2.09375-5.113282-7.929688-7.558594-13.042969-5.46875-5.109375 2.09375-7.558593 7.929687-5.46875 13.042968l.054688.125c1.585937 3.871094 5.316406 6.214844 9.257812 6.214844 1.261719 0 2.542969-.238281 3.785157-.746094 5.109374-2.09375 7.558593-7.933593 5.464843-13.042968zm0 0"/><path d="m297.898438 409.761719-35.8125-87.289063c-2.09375-5.109375-7.933594-7.554687-13.046876-5.457031-5.109374 2.09375-7.550781 7.9375-5.457031 13.046875l35.8125 87.289062c1.585938 3.871094 5.316407 6.207032 9.257813 6.207032 1.261718 0 2.546875-.238282 3.789062-.75 5.109375-2.09375 7.554688-7.9375 5.457032-13.046875zm0 0"/></g></defs><g fi:class="KUsePattern"><pattern id="pattern_L1_0" width="350" height="350" patternUnits="userSpaceOnUse"><use xlink:href="#L1_0" x="-350" y="-350"/><use xlink:href="#L1_0" x="0" y="-350"/><use xlink:href="#L1_0" x="350" y="-350"/><use xlink:href="#L1_0" x="-350" y="0"/><use xlink:href="#L1_0" x="0" y="0"/><use xlink:href="#L1_0" x="350" y="0"/><use xlink:href="#L1_0" x="-350" y="350"/><use xlink:href="#L1_0" x="0" y="350"/><use xlink:href="#L1_0" x="350" y="350"/></pattern><rect x="0" y="0" width="100%" height="100%" fill="url(#pattern_L1_0)"/></g><g fi:class="KUsePattern"><pattern id="pattern_L1_1" width="350" height="350" patternUnits="userSpaceOnUse"><use xlink:href="#L1_1" x="-350" y="-350"/><use xlink:href="#L1_1" x="0" y="-350"/><use xlink:href="#L1_1" x="350" y="-350"/><use xlink:href="#L1_1" x="-350" y="0"/><use xlink:href="#L1_1" x="0" y="0"/><use xlink:href="#L1_1" x="350" y="0"/><use xlink:href="#L1_1" x="-350" y="350"/><use xlink:href="#L1_1" x="0" y="350"/><use xlink:href="#L1_1" x="350" y="350"/></pattern><rect x="0" y="0" width="100%" height="100%" fill="url(#pattern_L1_1)"/></g><g fi:class="KUsePattern"><pattern id="pattern_L1_7" width="350" height="350" patternUnits="userSpaceOnUse"><use xlink:href="#L1_7" x="-350" y="-350"/><use xlink:href="#L1_7" x="0" y="-350"/><use xlink:href="#L1_7" x="350" y="-350"/><use xlink:href="#L1_7" x="-350" y="0"/><use xlink:href="#L1_7" x="0" y="0"/><use xlink:href="#L1_7" x="350" y="0"/><use xlink:href="#L1_7" x="-350" y="350"/><use xlink:href="#L1_7" x="0" y="350"/><use xlink:href="#L1_7" x="350" y="350"/></pattern><rect x="0" y="0" width="100%" height="100%" fill="url(#pattern_L1_7)"/></g><g fi:class="KUsePattern"><pattern id="pattern_L1_9" width="350" height="350" patternUnits="userSpaceOnUse"><use xlink:href="#L1_9" x="-350" y="-350"/><use xlink:href="#L1_9" x="0" y="-350"/><use xlink:href="#L1_9" x="350" y="-350"/><use xlink:href="#L1_9" x="-350" y="0"/><use xlink:href="#L1_9" x="0" y="0"/><use xlink:href="#L1_9" x="350" y="0"/><use xlink:href="#L1_9" x="-350" y="350"/><use xlink:href="#L1_9" x="0" y="350"/><use xlink:href="#L1_9" x="350" y="350"/></pattern><rect x="0" y="0" width="100%" height="100%" fill="url(#pattern_L1_9)"/></g><g fi:class="KUsePattern"><pattern id="pattern_L1_13" width="350" height="350" patternUnits="userSpaceOnUse"><use xlink:href="#L1_13" x="-350" y="-350"/><use xlink:href="#L1_13" x="0" y="-350"/><use xlink:href="#L1_13" x="350" y="-350"/><use xlink:href="#L1_13" x="-350" y="0"/><use xlink:href="#L1_13" x="0" y="0"/><use xlink:href="#L1_13" x="350" y="0"/><use xlink:href="#L1_13" x="-350" y="350"/><use xlink:href="#L1_13" x="0" y="350"/><use xlink:href="#L1_13" x="350" y="350"/></pattern><rect x="0" y="0" width="100%" height="100%" fill="url(#pattern_L1_13)"/></g><g fi:class="KUsePattern"><pattern id="pattern_L1_14" width="350" height="350" patternUnits="userSpaceOnUse"><use xlink:href="#L1_14" x="-350" y="-350"/><use xlink:href="#L1_14" x="0" y="-350"/><use xlink:href="#L1_14" x="350" y="-350"/><use xlink:href="#L1_14" x="-350" y="0"/><use xlink:href="#L1_14" x="0" y="0"/><use xlink:href="#L1_14" x="350" y="0"/><use xlink:href="#L1_14" x="-350" y="350"/><use xlink:href="#L1_14" x="0" y="350"/><use xlink:href="#L1_14" x="350" y="350"/></pattern><rect x="0" y="0" width="100%" height="100%" fill="url(#pattern_L1_14)"/></g><g fi:class="KUsePattern"><pattern id="pattern_L1_17" width="350" height="350" patternUnits="userSpaceOnUse"><use xlink:href="#L1_17" x="-350" y="-350"/><use xlink:href="#L1_17" x="0" y="-350"/><use xlink:href="#L1_17" x="350" y="-350"/><use xlink:href="#L1_17" x="-350" y="0"/><use xlink:href="#L1_17" x="0" y="0"/><use xlink:href="#L1_17" x="350" y="0"/><use xlink:href="#L1_17" x="-350" y="350"/><use xlink:href="#L1_17" x="0" y="350"/><use xlink:href="#L1_17" x="350" y="350"/></pattern><rect x="0" y="0" width="100%" height="100%" fill="url(#pattern_L1_17)"/></g><g fi:class="KUsePattern"><pattern id="pattern_L1_18" width="350" height="350" patternUnits="userSpaceOnUse"><use xlink:href="#L1_18" x="-350" y="-350"/><use xlink:href="#L1_18" x="0" y="-350"/><use xlink:href="#L1_18" x="350" y="-350"/><use xlink:href="#L1_18" x="-350" y="0"/><use xlink:href="#L1_18" x="0" y="0"/><use xlink:href="#L1_18" x="350" y="0"/><use xlink:href="#L1_18" x="-350" y="350"/><use xlink:href="#L1_18" x="0" y="350"/><use xlink:href="#L1_18" x="350" y="350"/></pattern><rect x="0" y="0" width="100%" height="100%" fill="url(#pattern_L1_18)"/></g><g fi:class="KUsePattern"><pattern id="pattern_L1_20" width="350" height="350" patternUnits="userSpaceOnUse"><use xlink:href="#L1_20" x="-350" y="-350"/><use xlink:href="#L1_20" x="0" y="-350"/><use xlink:href="#L1_20" x="350" y="-350"/><use xlink:href="#L1_20" x="-350" y="0"/><use xlink:href="#L1_20" x="0" y="0"/><use xlink:href="#L1_20" x="350" y="0"/><use xlink:href="#L1_20" x="-350" y="350"/><use xlink:href="#L1_20" x="0" y="350"/><use xlink:href="#L1_20" x="350" y="350"/></pattern><rect x="0" y="0" width="100%" height="100%" fill="url(#pattern_L1_20)"/></g></svg>